<?xml version="1.0" ?><svg viewBox="0 0 24 24" xmlns="http://www.w3.org/2000/svg" xmlns:xlink="http://www.w3.org/1999/xlink"><defs><linearGradient gradientUnits="userSpaceOnUse" id="a" x1="2.61636" x2="21.38364" y1="4.67636" y2="23.44363"><stop offset="0" stop-color="#fff" stop-opacity="0"/><stop offset="1" stop-color="#fff" stop-opacity="0.1"/></linearGradient></defs><title/><path d="M22.5,6H18V3.5a.49965.49965,0,0,0-.14648-.35352l-2-2A.49965.49965,0,0,0,15.5,1h-7a.49965.49965,0,0,0-.35352.14648l-2,2A.49965.49965,0,0,0,6,3.5V6H1.5a.49971.49971,0,0,0-.5.5V21a2.002,2.002,0,0,0,2,2H21a2.002,2.002,0,0,0,2-2V6.5A.49971.49971,0,0,0,22.5,6ZM15,6H9V4h6Z"/><polygon fill="#e83628" points="17 6 16 6 16 2.707 17 3.707 17 6"/><rect fill="#e83628" height="1" width="6" x="9" y="2"/><rect height="1" opacity="0.2" width="6" x="9" y="2"/><rect height="1" opacity="0.2" width="0.5" x="9" y="2"/><polygon fill="#e83628" points="7 3.707 8 2.707 8 6 7 6 7 3.707"/><path d="M22,21a1.0013,1.0013,0,0,1-1,1H3a1.0013,1.0013,0,0,1-1-1V7H22Z" fill="#fff"/><path d="M20.6969,7V18.64417a2.05273,2.05273,0,0,1-2.05273,2.05273H2V21a1.0013,1.0013,0,0,0,1,1H21a1.0013,1.0013,0,0,0,1-1V7Z" opacity="0.2"/><path d="M6.59082,15.92334a6.52282,6.52282,0,0,1,0,3.15283l-.07568.30225A.49992.49992,0,0,0,7,20a.4866.4866,0,0,0,.12109-.01514,7.79023,7.79023,0,0,1,3.75782,0,.49966.49966,0,0,0,.61425-.56689l-.15136-.90869a3.572,3.572,0,0,1,.40014-2.29511,2.95811,2.95811,0,0,0,.68421.22785,2.67806,2.67806,0,0,1,.10071,1.90075A.50026.50026,0,0,0,13.00146,19a4.43178,4.43178,0,0,1,2.47022.749l.25293.167A.50007.50007,0,0,0,16.5,19.49854a4.43236,4.43236,0,0,1,.74854-2.46973l.16748-.25342a.50036.50036,0,0,0-.25879-.75049,2.6326,2.6326,0,0,1-1.45386-1.24682A2.96658,2.96658,0,0,0,16,13.5a3.00076,3.00076,0,0,0-1.788-2.73932,2.98673,2.98673,0,1,0-5.09235,3.04346A2.50133,2.50133,0,0,1,7,15a.5.5,0,0,0-.48486.62158Z"/><path d="M16.26123,16.72021a5.4275,5.4275,0,0,0-.69385,1.92139,5.42977,5.42977,0,0,0-1.94433-.60693,3.66339,3.66339,0,0,0-.12714-1.58478,2.98569,2.98569,0,0,0,1.57959-.79248A3.66033,3.66033,0,0,0,16.26123,16.72021Z" fill="#4caf50"/><path d="M15.63489,16.27246a5.41156,5.41156,0,0,0-.46118,1.42847,5.41294,5.41294,0,0,0-1.53827-.52112,3.49323,3.49323,0,0,1-.01239.85486,5.42977,5.42977,0,0,1,1.94433.60693,5.4275,5.4275,0,0,1,.69385-1.92139A3.45578,3.45578,0,0,1,15.63489,16.27246Z" opacity="0.2"/><path d="M9.864,14.49347a2.991,2.991,0,0,0,.39679.21857,3.00592,3.00592,0,0,0,.65619.93921,4.56206,4.56206,0,0,0-.56152,3.02209l.03174.19141a8.80306,8.80306,0,0,0-2.72657-.00733,7.53,7.53,0,0,0-.03906-2.91357A3.55878,3.55878,0,0,0,9.864,14.49347Z" fill="#4caf50"/><path d="M8.49115,18.795a7.53058,7.53058,0,0,0-.13654-2.17242,3.54921,3.54921,0,0,0,2.19788-1.39881,3.0026,3.0026,0,0,1-.29169-.51171,2.991,2.991,0,0,1-.39679-.21857,3.55878,3.55878,0,0,1-2.24243,1.45038,7.53,7.53,0,0,1,.03906,2.91357C7.93549,18.81506,8.21375,18.8111,8.49115,18.795Z" fill="#fff" opacity="0.2"/><path d="M12.99705,15.5a2,2,0,1,1,.74658-3.85223.47759.47759,0,0,0,.10223.04834A1.99569,1.99569,0,0,1,12.99705,15.5Z" fill="#e83628"/><path d="M12.21515,13.02679a.47321.47321,0,1,1,.17664-.91146.11311.11311,0,0,0,.02419.01144.47219.47219,0,0,1-.20083.9Z" fill="#fff" opacity="0.2"/><path d="M13.84589,11.69611a.47766.47766,0,0,1-.10224-.04834,2.01894,2.01894,0,0,0-.5534-.1283c.04394.01392.09.02277.13232.03992a.40086.40086,0,0,0,.08673.04107A1.69278,1.69278,0,1,1,11.01343,13.338c-.00446.05432-.01636.10651-.01636.162a2,2,0,1,0,2.84882-1.80389Z" opacity="0.2"/><path d="M11.49705,10a1.96274,1.96274,0,0,1,1.30243.52A2.98649,2.98649,0,0,0,10.017,13.30267,1.96337,1.96337,0,0,1,9.49705,12,2.00229,2.00229,0,0,1,11.49705,10Z" fill="#e83628"/><path d="M10.67505,11.41394a.47321.47321,0,1,1,.17665-.91146.11266.11266,0,0,0,.02419.01144.47219.47219,0,0,1-.20084.9Z" fill="#fff" opacity="0.2"/><path d="M10.129,12.68707a1.49422,1.49422,0,0,1-.37-.97839,1.50317,1.50317,0,0,1,2.071-1.39667.35646.35646,0,0,0,.07708.0365,1.52561,1.52561,0,0,1,.37262.25433,2.99106,2.99106,0,0,1,.51972-.08288,2.22815,2.22815,0,0,0-.26685-.20166c-.01056-.00653-.02038-.014-.03113-.02039A1.88942,1.88942,0,0,0,11.49705,10a2.00229,2.00229,0,0,0-2,2,1.96337,1.96337,0,0,0,.52,1.30267A2.97718,2.97718,0,0,1,10.129,12.68707Z" opacity="0.2"/><path d="M22.5,6H18V3.5a.49965.49965,0,0,0-.14648-.35352l-2-2A.49965.49965,0,0,0,15.5,1h-7a.49965.49965,0,0,0-.35352.14648l-2,2A.49965.49965,0,0,0,6,3.5V6H1.5a.49971.49971,0,0,0-.5.5V21a2.002,2.002,0,0,0,2,2H21a2.002,2.002,0,0,0,2-2V6.5A.49971.49971,0,0,0,22.5,6ZM15,6H9V4h6Z" fill="url(#a)"/></svg>