<?xml version="1.0" ?><svg viewBox="0 0 24 24" xmlns="http://www.w3.org/2000/svg" xmlns:xlink="http://www.w3.org/1999/xlink"><defs><linearGradient gradientUnits="userSpaceOnUse" id="a" x1="2.69729" x2="21.30284" y1="2.79889" y2="21.40444"><stop offset="0" stop-color="#fff" stop-opacity="0"/><stop offset="1" stop-color="#fff" stop-opacity="0.1"/></linearGradient></defs><title/><path d="M20.293,19.001C19.7168,17.83984,19,16.39453,19,12.5a8.77082,8.77082,0,0,0-1.56219-5.504c.02.00067.0429.004.06219.004a1.24879,1.24879,0,0,0,.91309-.37695c.63574-.64893.60937-1.95508.59179-2.81934L19,3.5a5.76155,5.76155,0,0,1,.084-.72754c.12989-.85937.27637-1.833-.208-2.396A1.10743,1.10743,0,0,0,18,0c-1.2276,0-3.19934,1.033-4.753,2.44891a1.95966,1.95966,0,0,0-2.43347-.0498A8.582,8.582,0,0,0,6,0a1.10743,1.10743,0,0,0-.876.37646c-.48437.563-.33789,1.53663-.208,2.396A5.76155,5.76155,0,0,1,5,3.5l-.00488.30371c-.01758.86426-.04395,2.17041.59179,2.81934A1.24879,1.24879,0,0,0,6.5,7c.019,0,.04193-.00323.06177-.00391A8.77167,8.77167,0,0,0,5,12.5c0,3.89453-.7168,5.33984-1.293,6.501A5.06749,5.06749,0,0,0,3,21.5a.50011.50011,0,0,0,.5.5H9.1214a3.07158,3.07158,0,0,0,5.7572,0H20.5a.49971.49971,0,0,0,.5-.5A5.06749,5.06749,0,0,0,20.293,19.001Z"/><path d="M14.66992,7.69629l-.51172-.17041a.50228.50228,0,0,0-.63281.31592l-.05273.16015-.79828-2.12726a1.98768,1.98768,0,0,0,.63141-.37225c.17352.08655.40387.1991.675.32611Z" fill="#e83628"/><path d="M10.06372,5.87134c.27771-.12268.51453-.23175.69428-.31623a1.98346,1.98346,0,0,0,.56762.31958L10.52734,8.002l-.05273-.16015a.49951.49951,0,0,0-.63281-.31592l-.48828.1626Z" fill="#e83628"/><path d="M12,23a2.04944,2.04944,0,0,1-1.78925-1h3.5785A2.04944,2.04944,0,0,1,12,23Z" fill="#ffb300"/><path d="M12.48035,22.35632h-1.9939A1.90761,1.90761,0,0,1,10.21075,22h3.5785a2.04806,2.04806,0,0,1-1.77625.99835C12.53253,22.71118,12.89465,22.35632,12.48035,22.35632Z" opacity="0.2"/><path d="M4.0332,21a4.91789,4.91789,0,0,1,.56934-1.55469C5.19238,18.25684,6,16.62891,6,12.5,6,7.60693,8.57422,6.50928,8.67969,6.46631a.48457.48457,0,0,0,.09814-.05213L8.03418,8.31787a.49991.49991,0,0,0,.624.65625l1.02539-.3418.3418,1.02588A.50152.50152,0,0,0,10.49121,10H10.5a.49952.49952,0,0,0,.46777-.32422L12,6.92316l1.03223,2.75262A.49952.49952,0,0,0,13.5,10h.00879a.50152.50152,0,0,0,.46582-.3418l.3418-1.02588,1.02539.3418a.49962.49962,0,0,0,.627-.64746L15.27252,6.4411c.01508.00769.02912.01776.04389.02374C15.42578,6.50928,18,7.60693,18,12.5c0,4.12891.80762,5.75684,1.39746,6.94531A4.91789,4.91789,0,0,1,19.9668,21Z" fill="#ffca28"/><path d="M9.36407,12.5a19.5591,19.5591,0,0,1,.32276-3.858l-.00324-.00971-1.02539.3418a.49991.49991,0,0,1-.624-.65625l.74365-1.90369a.48457.48457,0,0,1-.09814.05213C8.57422,6.50928,6,7.60693,6,12.5c0,4.12891-.80762,5.75684-1.39746,6.94531A4.91789,4.91789,0,0,0,4.0332,21H8.5a9.58379,9.58379,0,0,1,.25012-1.55469A28.39465,28.39465,0,0,0,9.36407,12.5Z" fill="#fff" opacity="0.2"/><path d="M19.39746,19.44531C18.80762,18.25684,18,16.62891,18,12.5c0-4.89307-2.57422-5.99072-2.68359-6.03516-.01477-.006-.02881-.016-.04389-.02374l.69623,1.88556a.49962.49962,0,0,1-.627.64746l-1.02539-.3418-.0033.00983A19.55315,19.55315,0,0,1,14.63593,12.5a28.39465,28.39465,0,0,0,.61395,6.94531A9.58379,9.58379,0,0,1,15.5,21h4.4668A4.91789,4.91789,0,0,0,19.39746,19.44531Z" opacity="0.2"/><path d="M19.39746,19.44531C18.80762,18.25684,18,16.62891,18,12.5c0-4.89307-2.57422-5.99072-2.68359-6.03516-.01477-.006-.02881-.016-.04389-.02374l.69623,1.88556a.49978.49978,0,0,1-.10937.521.4835.4835,0,0,1-.13624.07867A13.35667,13.35667,0,0,1,16.14221,12.5a18.57648,18.57648,0,0,0,.96472,6.94531A6.455,6.455,0,0,1,17.5,21h2.4668A4.91789,4.91789,0,0,0,19.39746,19.44531Z" opacity="0.2"/><path d="M7.85779,12.5a13.35816,13.35816,0,0,1,.41907-3.574.48153.48153,0,0,1-.13916-.0813.501.501,0,0,1-.10352-.52686l.74365-1.90369a.48457.48457,0,0,1-.09814.05213C8.57422,6.50928,6,7.60693,6,12.5c0,4.12891-.80762,5.75684-1.39746,6.94531A4.91789,4.91789,0,0,0,4.0332,21H6.5a6.455,6.455,0,0,1,.39307-1.55469A18.57648,18.57648,0,0,0,7.85779,12.5Z" fill="#fff" opacity="0.2"/><path d="M18.11816,1.02881c.18506.21533.04981,1.1123-.02246,1.59424A6.60722,6.60722,0,0,0,18,3.5l.00488.32422c.01123.56787.03565,1.75-.30566,2.09863-.29309.29572-2.44483-.58325-3.82233-1.25537a1.91941,1.91941,0,0,0-.02545-1.41687C15.213,1.98987,17.01019,1,18,1A.16464.16464,0,0,1,18.11816,1.02881Z" fill="#e83628"/><circle cx="12" cy="4" fill="#e83628" r="1"/><path d="M12.4082,3.0918A.98519.98519,0,0,1,12.5,3.5a1.0013,1.0013,0,0,1-1,1,.98519.98519,0,0,1-.4082-.0918.99716.99716,0,1,0,1.3164-1.3164Z" opacity="0.2"/><path d="M5.88184,1.02881A.16464.16464,0,0,1,6,1a7.79634,7.79634,0,0,1,4.18207,2.17676,1.95042,1.95042,0,0,0-.03748,1.55981c-1.42016.65-3.55627,1.47772-3.84381,1.18628-.34131-.34863-.31689-1.53076-.30566-2.09863L6,3.5a6.60722,6.60722,0,0,0-.0957-.87695C5.832,2.14111,5.69678,1.24414,5.88184,1.02881Z" fill="#e83628"/><polygon fill="#fff" opacity="0.2" points="18 3.499 18.001 3.492 18 3.496 18 3.499"/><path d="M18,2.269a.30015.30015,0,0,1,.11816.01416c.01178.00672.01233.02472.02161.03406.06714-.4873.12921-1.11292-.02161-1.28839A.16464.16464,0,0,0,18,1c-.98981,0-2.78705.98987-4.14856,2.25061.01416.03479.02063.073.0329.1087A12.19691,12.19691,0,0,1,18,2.269Z" fill="#fff" opacity="0.2"/><path d="M17.69922,4.68445a15.419,15.419,0,0,1-3.70844-.58954,2.03924,2.03924,0,0,1-.11389.57257c1.3775.67212,3.52924,1.55109,3.82233,1.25537.31995-.32684.31842-1.37988.30774-1.979C17.99915,4.2262,17.94537,4.5611,17.69922,4.68445Z" opacity="0.2"/><path d="M5.88184,2.28314A.30015.30015,0,0,1,6,2.269a12.17348,12.17348,0,0,1,4.13452,1.0481c.01721-.04621.02722-.09564.04755-.14032A7.79634,7.79634,0,0,0,6,1a.16464.16464,0,0,0-.11816.02881c-.15082.17547-.08875.80109-.02161,1.28839C5.86951,2.30786,5.87006,2.28986,5.88184,2.28314Z" fill="#fff" opacity="0.2"/><path d="M6.30078,4.68445C6.0545,4.561,6.00092,4.22571,5.9931,3.9433c-.01074.599-.01239,1.65265.30768,1.97955.28754.29144,2.42365-.53631,3.84381-1.18628a2.01531,2.01531,0,0,1-.13147-.60547A15.873,15.873,0,0,1,6.30078,4.68445Z" opacity="0.2"/><polygon fill="#fff" opacity="0.2" points="5.999 3.492 6 3.499 6 3.496 5.999 3.492"/><path d="M18,1.61743a.20565.20565,0,0,1,.11816.02167.31913.31913,0,0,1,.07691.18585,1.37218,1.37218,0,0,0-.07691-.79614A.16464.16464,0,0,0,18,1c-.98981,0-2.78705.98987-4.14856,2.25061.00647.01593.009.03375.01508.04987A9.0724,9.0724,0,0,1,18,1.61743Z" fill="#fff" opacity="0.2"/><polygon fill="#fff" opacity="0.2" points="18 3.5 18.001 3.491 18 3.498 18 3.5"/><path d="M17.69922,5.32031c-.28821.21869-2.36975-.41626-3.749-.91815a2.25868,2.25868,0,0,1-.07337.26532c1.3775.67212,3.52924,1.55109,3.82233,1.25537a3.19131,3.19131,0,0,0,.31006-1.7702C18.00354,4.59155,17.95129,5.12665,17.69922,5.32031Z" opacity="0.2"/><path d="M5.88184,1.6391A.20565.20565,0,0,1,6,1.61743a8.96,8.96,0,0,1,4.1604,1.62335c.00867-.02069.01239-.04364.02167-.064A7.79634,7.79634,0,0,0,6,1a.16464.16464,0,0,0-.11816.02881,1.37218,1.37218,0,0,0-.07691.79614A.31913.31913,0,0,1,5.88184,1.6391Z" fill="#fff" opacity="0.2"/><path d="M6.30078,5.32031c-.25226-.19385-.30432-.72967-.31-1.16876a3.19349,3.19349,0,0,0,.31,1.7713c.28754.29144,2.42365-.53631,3.84381-1.18628a2.09787,2.09787,0,0,1-.0838-.28052C8.64172,4.94037,6.583,5.53546,6.30078,5.32031Z" opacity="0.2"/><polygon fill="#fff" opacity="0.2" points="5.999 3.491 6 3.5 6 3.498 5.999 3.491"/><path d="M20.293,19.001C19.7168,17.83984,19,16.39453,19,12.5a8.77082,8.77082,0,0,0-1.56219-5.504c.02.00067.0429.004.06219.004a1.24879,1.24879,0,0,0,.91309-.37695c.63574-.64893.60937-1.95508.59179-2.81934L19,3.5a5.76155,5.76155,0,0,1,.084-.72754c.12989-.85937.27637-1.833-.208-2.396A1.10743,1.10743,0,0,0,18,0c-1.2276,0-3.19934,1.033-4.753,2.44891a1.95966,1.95966,0,0,0-2.43347-.0498A8.582,8.582,0,0,0,6,0a1.10743,1.10743,0,0,0-.876.37646c-.48437.563-.33789,1.53663-.208,2.396A5.76155,5.76155,0,0,1,5,3.5l-.00488.30371c-.01758.86426-.04395,2.17041.59179,2.81934A1.24879,1.24879,0,0,0,6.5,7c.019,0,.04193-.00323.06177-.00391A8.77167,8.77167,0,0,0,5,12.5c0,3.89453-.7168,5.33984-1.293,6.501A5.06749,5.06749,0,0,0,3,21.5a.50011.50011,0,0,0,.5.5H9.1214a3.07158,3.07158,0,0,0,5.7572,0H20.5a.49971.49971,0,0,0,.5-.5A5.06749,5.06749,0,0,0,20.293,19.001Z" fill="url(#a)"/></svg>