<?xml version="1.0" ?><svg viewBox="0 0 24 24" xmlns="http://www.w3.org/2000/svg" xmlns:xlink="http://www.w3.org/1999/xlink"><defs><linearGradient gradientUnits="userSpaceOnUse" id="a" x1="3.095" x2="20.905" y1="0.99232" y2="18.80232"><stop offset="0" stop-color="#fff" stop-opacity="0"/><stop offset="1" stop-color="#fff" stop-opacity="0.1"/></linearGradient></defs><title/><path d="M23,9a3.3606,3.3606,0,0,1,.31885-.91846A6.3709,6.3709,0,0,0,24,5.5c0-1.68555-1.252-3.5-4-3.5-2.296,0-3.84735,1.53308-5.14856,3.32117a3.7591,3.7591,0,0,0-5.49121-.24811A6.76567,6.76567,0,0,0,4,2c-2.748,0-4,1.81445-4,3.5A6.3709,6.3709,0,0,0,.68115,8.08154,3.3606,3.3606,0,0,1,1,9a3.3606,3.3606,0,0,1-.31885.91846A6.3709,6.3709,0,0,0,0,12.5C0,14.18555,1.25195,16,4,16a4.879,4.879,0,0,0,2.06683-.46637A14.63405,14.63405,0,0,0,5,20.5a.5.5,0,0,0,.85352.35352,9.55537,9.55537,0,0,1,2.46679-1.72217l1.76367,2.646A.49988.49988,0,0,0,10.5,22a.49363.49363,0,0,0,.14014-.02A.50068.50068,0,0,0,11,21.50928c.04016-2.12915.34741-5.56873.99988-7.07428.652,1.50543.96,4.94519,1.00012,7.07428a.50068.50068,0,0,0,.35986.4707A.49363.49363,0,0,0,13.5,22a.49988.49988,0,0,0,.416-.22266l1.76367-2.646a9.55537,9.55537,0,0,1,2.46679,1.72217A.5.5,0,0,0,19,20.5a14.31673,14.31673,0,0,0-.93835-4.80426A6.23533,6.23533,0,0,0,20,16c2.748,0,4-1.81445,4-3.5a6.3709,6.3709,0,0,0-.68115-2.58154A3.3606,3.3606,0,0,1,23,9Z"/><ellipse cx="12" cy="9" fill="#e83628" rx="3" ry="4"/><path d="M13.22192,5.25928A5.36391,5.36391,0,0,1,13.75,7.75c0,2.50488-1.12158,4-3,4a2.86379,2.86379,0,0,1-1.22192-.25928A2.654,2.654,0,0,0,12,13c1.87842,0,3-1.49512,3-4C15,7.10059,14.35266,5.78589,13.22192,5.25928Z" opacity="0.2"/><path d="M10.06445,19.94531,8.916,18.22266a.50026.50026,0,0,0-.60157-.187,10.603,10.603,0,0,0-2.23291,1.3003,17.57737,17.57737,0,0,1,1.50574-4.81153,11.34851,11.34851,0,0,0,1.598-1.7984A3.6616,3.6616,0,0,0,11.158,13.89673,19.85013,19.85013,0,0,0,10.06445,19.94531Z" fill="#e83628"/><path d="M7.72345,16.24658a2.44644,2.44644,0,0,1,.5354-.75647l.01715-.0169a2.39257,2.39257,0,0,1,2.5083-.52039,7.093,7.093,0,0,1,.37366-1.05609A3.6616,3.6616,0,0,1,9.18524,12.726a11.34851,11.34851,0,0,1-1.598,1.7984,17.57737,17.57737,0,0,0-1.50574,4.81153c.24457-.18537.48377-.34693.71234-.49231A19.42161,19.42161,0,0,1,7.72345,16.24658Z" opacity="0.2"/><path d="M17.93213,19.3457a10.61286,10.61286,0,0,0-2.24658-1.31006.50026.50026,0,0,0-.60157.187l-1.14843,1.72265A19.85013,19.85013,0,0,0,12.842,13.89673a3.66387,3.66387,0,0,0,1.76288-.9411,7.93931,7.93931,0,0,0,2.11432,2.10815A15.02362,15.02362,0,0,1,17.93213,19.3457Z" fill="#e83628"/><path d="M14.44165,16.0929a2.263,2.263,0,0,1,.86285-2.27131,10.02054,10.02054,0,0,1-.69958-.866,3.66387,3.66387,0,0,1-1.76288.9411,19.85013,19.85013,0,0,1,1.09351,6.04858l.90466-1.35693A22.5872,22.5872,0,0,0,14.44165,16.0929Z" opacity="0.2"/><path d="M20,15c-1.94843,0-3.422-.89386-4.74786-2.86157.017-.02851.0285-.06513.045-.09436,2.85547-.1886,5.55054.09478,5.72968.618A.50069.50069,0,0,0,21.5,13a.50813.50813,0,0,0,.16211-.02686.5005.5005,0,0,0,.311-.63525c-.48364-1.40863-4.09881-1.43549-6.25714-1.32184a6.95477,6.95477,0,0,0,.268-1.80365l2.36224.76319a.49984.49984,0,1,0,.30762-.95118l-2.05811-.665L18.77588,6.917a.5.5,0,0,0-.55176-.834L15.88049,7.63342a5.345,5.345,0,0,0-.45105-1.40063C16.62433,4.52661,18.01288,3,20,3c2.21436,0,3,1.34668,3,2.5a5.47421,5.47421,0,0,1-.59766,2.18164A3.57567,3.57567,0,0,0,22,9a3.57567,3.57567,0,0,0,.40234,1.31836A5.47421,5.47421,0,0,1,23,12.5C23,13.65332,22.21436,15,20,15Z" fill="#e83628"/><path d="M20,4.2735c1.84521,0,2.689.936,2.92212,1.9151A3.42712,3.42712,0,0,0,23,5.5C23,4.34668,22.21436,3,20,3c-1.98712,0-3.37567,1.52661-4.57056,3.23279a5.54932,5.54932,0,0,1,.31177.84546C16.86725,5.55414,18.182,4.2735,20,4.2735Z" fill="#fff" opacity="0.2"/><path d="M19.24786,14a2.92292,2.92292,0,0,0,2.56659-1.11609.49377.49377,0,0,1-.15234.08923A.50813.50813,0,0,1,21.5,13a.50069.50069,0,0,1-.47314-.33789c-.17914-.52326-2.87421-.80664-5.72968-.618-.01276.02258-.02319.04858-.03479.07287A5.04788,5.04788,0,0,0,19.24786,14Z" opacity="0.2"/><path d="M3.96592,3c1.94842,0,3.422.89386,4.74786,2.86157-.017.02851-.0285.06513-.045.09436-2.85547.1886-5.55054-.09478-5.72968-.618A.5007.5007,0,0,0,2.46592,5a.50813.50813,0,0,0-.16211.02686.50051.50051,0,0,0-.311.63525C2.47642,7.07074,6.09159,7.0976,8.24991,6.984A6.95522,6.95522,0,0,0,7.982,8.7876L5.61973,8.02441a.49984.49984,0,0,0-.30762.95118l2.0581.665L5.19,11.083a.5.5,0,1,0,.55176.834l2.34362-1.55041a5.34534,5.34534,0,0,0,.45105,1.40063C7.34159,13.47339,5.953,15,3.96592,15c-2.21436,0-3-1.34668-3-2.5a5.47437,5.47437,0,0,1,.59765-2.18164A3.5757,3.5757,0,0,0,1.96592,9a3.5757,3.5757,0,0,0-.40235-1.31836A5.47437,5.47437,0,0,1,.96592,5.5C.96592,4.34668,1.75156,3,3.96592,3Z" fill="#e83628"/><path d="M3.96592,13.7265c-1.84522,0-2.689-.936-2.92212-1.9151A3.42712,3.42712,0,0,0,.96592,12.5c0,1.15332.78564,2.5,3,2.5,1.98712,0,3.37567-1.52661,4.57055-3.23279a5.55037,5.55037,0,0,1-.31176-.84546C7.09867,12.44586,5.784,13.7265,3.96592,13.7265Z" opacity="0.2"/><path d="M4.71805,4A2.92294,2.92294,0,0,0,2.15146,5.11609a.49382.49382,0,0,1,.15235-.08923A.50813.50813,0,0,1,2.46592,5a.5007.5007,0,0,1,.47314.33789c.17914.52326,2.87421.80664,5.72968.618.01275-.02258.02319-.04858.03479-.07287A5.04789,5.04789,0,0,0,4.71805,4Z" fill="#fff" opacity="0.2"/><path d="M23,9a3.3606,3.3606,0,0,1,.31885-.91846A6.3709,6.3709,0,0,0,24,5.5c0-1.68555-1.252-3.5-4-3.5-2.296,0-3.84735,1.53308-5.14856,3.32117a3.7591,3.7591,0,0,0-5.49121-.24811A6.76567,6.76567,0,0,0,4,2c-2.748,0-4,1.81445-4,3.5A6.3709,6.3709,0,0,0,.68115,8.08154,3.3606,3.3606,0,0,1,1,9a3.3606,3.3606,0,0,1-.31885.91846A6.3709,6.3709,0,0,0,0,12.5C0,14.18555,1.25195,16,4,16a4.879,4.879,0,0,0,2.06683-.46637A14.63405,14.63405,0,0,0,5,20.5a.5.5,0,0,0,.85352.35352,9.55537,9.55537,0,0,1,2.46679-1.72217l1.76367,2.646A.49988.49988,0,0,0,10.5,22a.49363.49363,0,0,0,.14014-.02A.50068.50068,0,0,0,11,21.50928c.04016-2.12915.34741-5.56873.99988-7.07428.652,1.50543.96,4.94519,1.00012,7.07428a.50068.50068,0,0,0,.35986.4707A.49363.49363,0,0,0,13.5,22a.49988.49988,0,0,0,.416-.22266l1.76367-2.646a9.55537,9.55537,0,0,1,2.46679,1.72217A.5.5,0,0,0,19,20.5a14.31673,14.31673,0,0,0-.93835-4.80426A6.23533,6.23533,0,0,0,20,16c2.748,0,4-1.81445,4-3.5a6.3709,6.3709,0,0,0-.68115-2.58154A3.3606,3.3606,0,0,1,23,9Z" fill="url(#a)"/></svg>