<?xml version="1.0" ?><svg viewBox="0 0 24 24" xmlns="http://www.w3.org/2000/svg" xmlns:xlink="http://www.w3.org/1999/xlink"><defs><linearGradient gradientUnits="userSpaceOnUse" id="a" x1="3.55956" x2="19.19043" y1="4.38571" y2="20.01658"><stop offset="0" stop-color="#fff" stop-opacity="0"/><stop offset="1" stop-color="#fff" stop-opacity="0.1"/></linearGradient></defs><title/><path d="M18.6582,17.02539a5.987,5.987,0,0,1-2.44378-1.26764A2.9564,2.9564,0,0,0,15,11.91724V5c0-.13232-.02893-.25671-.03906-.38647V4.60791l-.00073-.00183A4.99357,4.99357,0,0,0,11.90289.38068c-.00561-.0019-.00946-.00641-.01519-.00812-.00507-.00147-.01008-.00006-.01514-.00134a4.90807,4.90807,0,0,0-3.74494,0C8.1225.37256,8.11743.371,8.1123.37256c-.00573.00171-.00958.00622-.01519.00812a4.99357,4.99357,0,0,0-3.05732,4.2254l-.00073.00183v.00562C5.02893,4.74329,5,4.86768,5,5V7A2,2,0,0,0,9,7V5a1,1,0,0,1,2,0v5.18427a2.96713,2.96713,0,0,0-1.38141,4.61846A2.53552,2.53552,0,0,1,7.5,16a.50044.50044,0,0,0-.48535.62061l.07519.30322a6.50084,6.50084,0,0,1,0,3.15332l-.07519.30224a.49991.49991,0,0,0,.60644.60547A7.78145,7.78145,0,0,1,11,20.91479V22a2,2,0,0,0,4,0v-.53375c.019.00177.03662.01031.05566.01031a.58087.58087,0,0,0,.17969-.02783A8.72462,8.72462,0,0,1,18,21a.50064.50064,0,0,0,.47461-.6582c-.292-.875-.3291-2.0044.11816-2.30274l.18457-.123a.50059.50059,0,0,0-.11914-.89063Z"/><path d="M13.5,16.5a2,2,0,1,1,.74658-3.85223.47766.47766,0,0,0,.10224.04834A1.99569,1.99569,0,0,1,13.5,16.5Z" fill="#e83628"/><path d="M12.7181,14.02679a.47321.47321,0,1,1,.17665-.91146.11266.11266,0,0,0,.02419.01144.47219.47219,0,0,1-.20084.9Z" fill="#fff" opacity="0.2"/><path d="M14.34882,12.69611a.47766.47766,0,0,1-.10224-.04834A1.98507,1.98507,0,0,0,13.5,12.5c-.03925,0-.076.00934-.11469.0116a1.719,1.719,0,0,1,.52259.11462.40433.40433,0,0,0,.08734.04132,1.73212,1.73212,0,1,1-2.40729,1.278A1.97273,1.97273,0,0,0,11.5,14.5a2,2,0,1,0,2.84882-1.80389Z" opacity="0.2"/><path d="M12.89062,18.688a2.19033,2.19033,0,0,1-.40686-1.37732,2.94469,2.94469,0,0,0,.45868.133,1.54447,1.54447,0,0,1,.08393,1.3996.49371.49371,0,0,0,.26135.59986l-.56036.11718.18866-.283A.49942.49942,0,0,0,12.89062,18.688Z" fill="#fff"/><polygon fill="#fff" points="12 5.71 14 5.31 14 7.29 12 7.69 12 5.71"/><path d="M13.92969,4.30444l-1.96039.39179A1.98931,1.98931,0,0,0,11.437,3.61481l.6098-2.03308A3.98981,3.98981,0,0,1,13.92969,4.30444Z" fill="#e83628"/><path d="M7.95325,1.58173l.6098,2.03308A1.98931,1.98931,0,0,0,8.0307,4.69623L6.07031,4.30444A3.98981,3.98981,0,0,1,7.95325,1.58173Z" fill="#e83628"/><path d="M7,8A1.001,1.001,0,0,1,6,7V5.30988l2,.39971V7A1.001,1.001,0,0,1,7,8Z" fill="#fff"/><path d="M9.44794,3.08722,8.8761,1.18054A3.94421,3.94421,0,0,1,10,1a3.94421,3.94421,0,0,1,1.1239.18054l-.57184,1.90668a1.79075,1.79075,0,0,0-1.10412,0Z" fill="#fff"/><path d="M12,8.70959l2-.39971v2.47131A2.98262,2.98262,0,0,0,12,10Z" fill="#e83628"/><path d="M12,11a1.9627,1.9627,0,0,1,1.30243.52A2.9865,2.9865,0,0,0,10.52,14.30267,1.96337,1.96337,0,0,1,10,13,2.00229,2.00229,0,0,1,12,11Z" fill="#e83628"/><path d="M11.178,12.41394a.47321.47321,0,1,1,.17665-.91146.11311.11311,0,0,0,.02419.01144.47219.47219,0,0,1-.20084.9Z" fill="#fff" opacity="0.2"/><path d="M8.16016,19.85742a7.52058,7.52058,0,0,0-.03907-2.91357,3.55846,3.55846,0,0,0,2.24268-1.45044,2.99552,2.99552,0,0,0,.39716.21881,2.99994,2.99994,0,0,0,.75909,1.024,3.62087,3.62087,0,0,0,.37744,2.26672l-.62207.93311A8.82355,8.82355,0,0,0,8.16016,19.85742Z" fill="#4caf50"/><path d="M8.82983,19.78491a7.511,7.511,0,0,0-.12243-2.28937,3.5584,3.5584,0,0,0,2.24267-1.45044l.00946.00525a2.82158,2.82158,0,0,1-.1986-.33813,2.99552,2.99552,0,0,1-.39716-.21881,3.55846,3.55846,0,0,1-2.24268,1.45044,7.52058,7.52058,0,0,1,.03907,2.91357C8.38226,19.8233,8.606,19.80194,8.82983,19.78491Z" fill="#fff" opacity="0.2"/><path d="M13,23a1.001,1.001,0,0,1-1-1V20.73389l2-.4184V22A1.001,1.001,0,0,1,13,23Z" fill="#e83628"/><path d="M13.48376,20.42346v1.19708a1.001,1.001,0,0,1-1,1,.97114.97114,0,0,1-.28814-.05828A.98249.98249,0,0,0,13,23a1.001,1.001,0,0,0,1-1V20.31549Z" opacity="0.2"/><path d="M10.632,13.68707a1.49422,1.49422,0,0,1-.37-.97839A1.50317,1.50317,0,0,1,12.333,11.312a.35632.35632,0,0,0,.07709.0365,1.52556,1.52556,0,0,1,.37261.25433,2.99122,2.99122,0,0,1,.51972-.08288,2.22815,2.22815,0,0,0-.26685-.20166c-.01056-.00653-.02038-.014-.03112-.02039A1.88945,1.88945,0,0,0,12,11a2.00229,2.00229,0,0,0-2,2,1.96337,1.96337,0,0,0,.52,1.30267A2.97784,2.97784,0,0,1,10.632,13.68707Z" opacity="0.2"/><path d="M17.35742,20.021a9.75,9.75,0,0,0-1.82812.30029,1.66507,1.66507,0,0,0-.07227-.21143,3.10053,3.10053,0,0,0-1.36035-1.39013,2.24146,2.24146,0,0,0-.07581-1.2724,2.98823,2.98823,0,0,0,1.62781-.86127,6.09411,6.09411,0,0,0,1.92554,1.11023A3.41908,3.41908,0,0,0,17.35742,20.021Z" fill="#4caf50"/><path d="M17.57422,17.69629c-.21552-.08508-.4151-.17181-.60114-.25989a3.64253,3.64253,0,0,0-.13653,2.13092,9.71979,9.71979,0,0,0-1.5495.241,2.04766,2.04766,0,0,1,.17.30157,1.66507,1.66507,0,0,1,.07227.21143,9.75,9.75,0,0,1,1.82812-.30029A3.41908,3.41908,0,0,1,17.57422,17.69629Z" opacity="0.2"/><path d="M12.54065,5.60156,12,5.70959V7.69012l.54272-.10845V5.62189Z" fill="#fff" opacity="0.2"/><path d="M11.71356,4.00806a1.98649,1.98649,0,0,1,.25574.68817l.30273-.06049A2.00368,2.00368,0,0,0,11.71356,4.00806Z" fill="#fff" opacity="0.2"/><path d="M12.22632,1.993a3.74308,3.74308,0,0,1,.96789.64032,4.03387,4.03387,0,0,0-1.14746-1.05157l-.092.30676c.00843.00317.01709.00409.02545.00732Z" fill="#fff" opacity="0.2"/><path d="M8.19824,2.39856l-.245-.81683A3.98981,3.98981,0,0,0,6.07031,4.30444l.68219.13636A3.9518,3.9518,0,0,1,8.19824,2.39856Z" fill="#fff" opacity="0.2"/><path d="M6.54272,5.62189c.01136-.08869.01917-.14923.025-.19855L6,5.30988V7a1,1,0,0,0,.60211.91528.97158.97158,0,0,1-.05939-.29339Z" fill="#fff" opacity="0.2"/><path d="M10.97913,1.66333l.14477-.48279A3.94421,3.94421,0,0,0,10,1a3.94421,3.94421,0,0,0-1.1239.18054l.21741.72492a3.94992,3.94992,0,0,1,1.44921-.28357A3.85772,3.85772,0,0,1,10.97913,1.66333Z" fill="#fff" opacity="0.2"/><path d="M12,8.70959V10a2.90379,2.90379,0,0,1,.54272.05219V8.60114Z" fill="#fff" opacity="0.2"/><path d="M18.6582,17.02539a5.987,5.987,0,0,1-2.44378-1.26764A2.9564,2.9564,0,0,0,15,11.91724V5c0-.13232-.02893-.25671-.03906-.38647V4.60791l-.00073-.00183A4.99357,4.99357,0,0,0,11.90289.38068c-.00561-.0019-.00946-.00641-.01519-.00812-.00507-.00147-.01008-.00006-.01514-.00134a4.90807,4.90807,0,0,0-3.74494,0C8.1225.37256,8.11743.371,8.1123.37256c-.00573.00171-.00958.00622-.01519.00812a4.99357,4.99357,0,0,0-3.05732,4.2254l-.00073.00183v.00562C5.02893,4.74329,5,4.86768,5,5V7A2,2,0,0,0,9,7V5a1,1,0,0,1,2,0v5.18427a2.96713,2.96713,0,0,0-1.38141,4.61846A2.53552,2.53552,0,0,1,7.5,16a.50044.50044,0,0,0-.48535.62061l.07519.30322a6.50084,6.50084,0,0,1,0,3.15332l-.07519.30224a.49991.49991,0,0,0,.60644.60547A7.78145,7.78145,0,0,1,11,20.91479V22a2,2,0,0,0,4,0v-.53375c.019.00177.03662.01031.05566.01031a.58087.58087,0,0,0,.17969-.02783A8.72462,8.72462,0,0,1,18,21a.50064.50064,0,0,0,.47461-.6582c-.292-.875-.3291-2.0044.11816-2.30274l.18457-.123a.50059.50059,0,0,0-.11914-.89063Z" fill="url(#a)"/></svg>