<?xml version="1.0" ?><svg viewBox="0 0 24 24" xmlns="http://www.w3.org/2000/svg" xmlns:xlink="http://www.w3.org/1999/xlink"><defs><linearGradient gradientUnits="userSpaceOnUse" id="a" x1="3.23492" x2="20.76508" y1="2.26139" y2="19.79156"><stop offset="0" stop-color="#fff" stop-opacity="0"/><stop offset="1" stop-color="#fff" stop-opacity="0.1"/></linearGradient></defs><title/><path d="M22.98938,13.1051C22.99066,13.0694,23,13.036,23,13s-.00934-.0694-.01062-.105a10.96648,10.96648,0,0,0-3.214-7.67621,3.55086,3.55086,0,0,0-.77356-.5329c.01184-.3139.00794-.61908.00256-.88214L19,3.5a5.59745,5.59745,0,0,1,.08447-.72754c.1294-.85937.27588-1.833-.20849-2.396A1.10823,1.10823,0,0,0,18,0c-1.228,0-3.19928,1.033-4.753,2.44885A1.96027,1.96027,0,0,0,10.81335,2.399,8.58315,8.58315,0,0,0,6,0a1.10823,1.10823,0,0,0-.876.37646c-.48437.563-.33789,1.53663-.20849,2.396A5.59745,5.59745,0,0,1,5,3.5l-.00439.30371c-.00519.25482-.009.54913.00134.8526a3.68555,3.68555,0,0,0-.77527.56537,10.96077,10.96077,0,0,0-3.21173,7.68011C1.00885,12.93518,1,12.96637,1,13s.00885.06482.00995.09821A10.96611,10.96611,0,0,0,11.89954,23.98987C11.93365,23.991,11.96558,24,12,24s.06635-.009.10046-.01013A10.965,10.965,0,0,0,22.98938,13.1051Zm-9.10895,5.57648a2.93478,2.93478,0,0,0-3.76086,0,6.024,6.024,0,0,1-3.80115-3.80115,2.93484,2.93484,0,0,0-.00256-3.764,6.01639,6.01639,0,0,1,1.69934-2.585.485.485,0,0,0,.1225.3133.498.498,0,0,0,.5205.12939l1.02539-.3418.34229,1.02588A.49979.49979,0,0,0,10.49072,10H10.5a.50017.50017,0,0,0,.46826-.32422L12,6.9245l1.03174,2.75128A.50017.50017,0,0,0,13.5,10h.00928a.49979.49979,0,0,0,.46484-.3418l.34229-1.02588,1.02539.3418a.50126.50126,0,0,0,.51758-.12646.48308.48308,0,0,0,.12457-.31861,6.02531,6.02531,0,0,1,1.70025,2.58734,2.93484,2.93484,0,0,0-.00262,3.764A6.024,6.024,0,0,1,13.88043,18.68158Z"/><path d="M19.07129,5.92871a9.92488,9.92488,0,0,1,2.60016,4.58173,2.9503,2.9503,0,0,0-3.17066-.09363,7.04042,7.04042,0,0,0-3.051-3.497L15.25232,6.385A7.21925,7.21925,0,0,0,17.5,7a1.25066,1.25066,0,0,0,.91357-.37695,1.91806,1.91806,0,0,0,.44477-.86359A2.14709,2.14709,0,0,1,19.07129,5.92871Z" fill="#4caf50"/><path d="M4.91748,5.93945c.06836-.06414.145-.12762.22168-.188a1.92512,1.92512,0,0,0,.44727.87165A1.25066,1.25066,0,0,0,6.5,7a7.71545,7.71545,0,0,0,2.28259-.598l-.19446.49786a7.03526,7.03526,0,0,0-3.08874,3.51709,2.9513,2.9513,0,0,0-3.17377.09509A9.89315,9.89315,0,0,1,4.91748,5.93945Z" fill="#4caf50"/><path d="M2.32794,15.48926a2.952,2.952,0,0,0,3.17993.08923,7.04384,7.04384,0,0,0,3.91364,3.91364,2.95193,2.95193,0,0,0,.08917,3.17981,9.90676,9.90676,0,0,1-7.18274-7.18268Z" fill="#4caf50"/><path d="M14.48944,22.67175a2.95191,2.95191,0,0,0,.08905-3.17962,7.04394,7.04394,0,0,0,3.91364-3.9137,2.95153,2.95153,0,0,0,3.17932-.08887,9.90438,9.90438,0,0,1-7.182,7.18219Z" fill="#4caf50"/><path d="M12.08484,22.99139c-.0564.00049-.11261.00061-.169.00013a2.00122,2.00122,0,1,1,.169-.00013Z" fill="#e83628"/><path d="M2.00665,12.93445a1.99871,1.99871,0,1,1-.00012.13C2.00623,13.02106,2.00635,12.97784,2.00665,12.93445Z" fill="#e83628"/><path d="M2.00665,12.93445a1.99871,1.99871,0,1,1-.00012.13C2.00623,13.02106,2.00635,12.97784,2.00665,12.93445Z" fill="#e83628"/><path d="M4.97974,11.26709a1.97587,1.97587,0,0,1,.26709.97974,2.002,2.002,0,0,1-2,2,1.96788,1.96788,0,0,1-.97315-.2638,1.99135,1.99135,0,1,0,2.70606-2.71594Z" opacity="0.2"/><path d="M18,13a1.99635,1.99635,0,0,1,3.99078-.09125c.00061.06092.00061.12158,0,.1825A1.99635,1.99635,0,0,1,18,13Z" fill="#e83628"/><path d="M10.75793,5.55524a1.98541,1.98541,0,0,0,.56745.31945L10.52783,8.002l-.05371-.16015a.49819.49819,0,0,0-.63232-.31592l-.4878.1626.70978-1.81708C10.34143,5.74872,10.57819,5.63971,10.75793,5.55524Z" fill="#e83628"/><path d="M13.30579,5.50269c.17346.08648.40362.19885.67462.3258l.69,1.8678-.51221-.17041a.4976.4976,0,0,0-.63232.31592l-.05371.16015-.79755-2.12726A1.98831,1.98831,0,0,0,13.30579,5.50269Z" fill="#e83628"/><path d="M18.11816,1.02881c.18506.21533.04981,1.1123-.02246,1.59424A6.60722,6.60722,0,0,0,18,3.5l.00488.32422c.01123.56787.03565,1.75-.30566,2.09863-.29309.29572-2.44483-.58325-3.82233-1.25537a1.91941,1.91941,0,0,0-.02545-1.41687C15.213,1.98987,17.01019,1,18,1A.16464.16464,0,0,1,18.11816,1.02881Z" fill="#e83628"/><circle cx="12" cy="4" fill="#e83628" r="1"/><path d="M5.88184,1.02881A.16464.16464,0,0,1,6,1a7.79634,7.79634,0,0,1,4.18207,2.17676,1.95042,1.95042,0,0,0-.03748,1.55981c-1.42016.65-3.55627,1.47772-3.84381,1.18628-.34131-.34863-.31689-1.53076-.30566-2.09863L6,3.5a6.60722,6.60722,0,0,0-.0957-.87695C5.832,2.14111,5.69678,1.24414,5.88184,1.02881Z" fill="#e83628"/><polygon fill="#fff" opacity="0.2" points="18 3.499 18.001 3.492 18 3.496 18 3.499"/><path d="M18,2.269a.30015.30015,0,0,1,.11816.01416c.01178.00672.01233.02472.02161.03406.06714-.4873.12921-1.11292-.02161-1.28839A.16464.16464,0,0,0,18,1c-.98981,0-2.78705.98987-4.14856,2.25061.01416.03479.02063.073.0329.1087A12.19691,12.19691,0,0,1,18,2.269Z" fill="#fff" opacity="0.2"/><path d="M17.69922,4.68445a15.419,15.419,0,0,1-3.70844-.58954,2.03924,2.03924,0,0,1-.11389.57257c1.3775.67212,3.52924,1.55109,3.82233,1.25537.31995-.32684.31842-1.37988.30774-1.979C17.99915,4.2262,17.94537,4.5611,17.69922,4.68445Z" opacity="0.2"/><path d="M5.88184,2.28314A.30015.30015,0,0,1,6,2.269a12.17348,12.17348,0,0,1,4.13452,1.0481c.01721-.04621.02722-.09564.04755-.14032A7.79634,7.79634,0,0,0,6,1a.16464.16464,0,0,0-.11816.02881c-.15082.17547-.08875.80109-.02161,1.28839C5.86951,2.30786,5.87006,2.28986,5.88184,2.28314Z" fill="#fff" opacity="0.2"/><path d="M6.30078,4.68445C6.0545,4.561,6.00092,4.22571,5.9931,3.9433c-.01074.599-.01239,1.65265.30768,1.97955.28754.29144,2.42365-.53631,3.84381-1.18628a2.01531,2.01531,0,0,1-.13147-.60547A15.873,15.873,0,0,1,6.30078,4.68445Z" opacity="0.2"/><polygon fill="#fff" opacity="0.2" points="5.999 3.492 6 3.499 6 3.496 5.999 3.492"/><path d="M18,1.61743a.20565.20565,0,0,1,.11816.02167.31913.31913,0,0,1,.07691.18585,1.37218,1.37218,0,0,0-.07691-.79614A.16464.16464,0,0,0,18,1c-.98981,0-2.78705.98987-4.14856,2.25061.00647.01593.009.03375.01508.04987A9.0724,9.0724,0,0,1,18,1.61743Z" fill="#fff" opacity="0.2"/><polygon fill="#fff" opacity="0.2" points="18 3.5 18.001 3.491 18 3.498 18 3.5"/><path d="M17.69922,5.32031c-.28821.21869-2.36975-.41626-3.749-.91815a2.25868,2.25868,0,0,1-.07337.26532c1.3775.67212,3.52924,1.55109,3.82233,1.25537a3.19131,3.19131,0,0,0,.31006-1.7702C18.00354,4.59155,17.95129,5.12665,17.69922,5.32031Z" opacity="0.2"/><path d="M5.88184,1.6391A.20565.20565,0,0,1,6,1.61743a8.96,8.96,0,0,1,4.1604,1.62335c.00867-.02069.01239-.04364.02167-.064A7.79634,7.79634,0,0,0,6,1a.16464.16464,0,0,0-.11816.02881,1.37218,1.37218,0,0,0-.07691.79614A.31913.31913,0,0,1,5.88184,1.6391Z" fill="#fff" opacity="0.2"/><path d="M6.30078,5.32031c-.25226-.19385-.30432-.72967-.31-1.16876a3.19341,3.19341,0,0,0,.31,1.7713c.28754.29144,2.42365-.53631,3.84381-1.18628a2.09787,2.09787,0,0,1-.0838-.28052C8.64172,4.94037,6.583,5.53546,6.30078,5.32031Z" opacity="0.2"/><polygon fill="#fff" opacity="0.2" points="5.999 3.491 6 3.5 6 3.498 5.999 3.491"/><path d="M21.67145,10.51044a9.92488,9.92488,0,0,0-2.60016-4.58173,2.14709,2.14709,0,0,0-.213-.16925c-.01178.04431-.03241.082-.0459.12518a9.93258,9.93258,0,0,1,1.6994,4.163A2.98433,2.98433,0,0,1,21.67145,10.51044Z" opacity="0.2"/><path d="M4.92871,20.07129a9.92224,9.92224,0,0,0,4.582,2.60065,2.98369,2.98369,0,0,1-.46307-1.1601,9.94826,9.94826,0,0,1-4.68213-2.08765C4.54877,19.64252,4.72333,19.86591,4.92871,20.07129Z" opacity="0.2"/><path d="M19.659,15.97552A10.02246,10.02246,0,0,1,14.97552,20.659,2.81332,2.81332,0,0,1,15,21a2.98225,2.98225,0,0,1-.51056,1.67175,9.90438,9.90438,0,0,0,7.182-7.18219A2.98214,2.98214,0,0,1,20,16,2.81332,2.81332,0,0,1,19.659,15.97552Z" opacity="0.2"/><path d="M20.97974,11.2642a1.97587,1.97587,0,0,1,.26709.97974,2.002,2.002,0,0,1-2,2,1.96788,1.96788,0,0,1-.97315-.2638,1.99135,1.99135,0,1,0,2.70606-2.71594Z" opacity="0.2"/><path d="M12.97974,19.26709a1.97587,1.97587,0,0,1,.26709.97974,2.002,2.002,0,0,1-2,2,1.96788,1.96788,0,0,1-.97315-.2638,1.99135,1.99135,0,1,0,2.70606-2.71594Z" opacity="0.2"/><path d="M12.4082,3.0918A.98519.98519,0,0,1,12.5,3.5a1.0013,1.0013,0,0,1-1,1,.98519.98519,0,0,1-.4082-.0918.99716.99716,0,1,0,1.3164-1.3164Z" opacity="0.2"/><path d="M22.98938,13.1051C22.99066,13.0694,23,13.036,23,13s-.00934-.0694-.01062-.105a10.96648,10.96648,0,0,0-3.214-7.67621,3.55086,3.55086,0,0,0-.77356-.5329c.01184-.3139.00794-.61908.00256-.88214L19,3.5a5.59745,5.59745,0,0,1,.08447-.72754c.1294-.85937.27588-1.833-.20849-2.396A1.10823,1.10823,0,0,0,18,0c-1.228,0-3.19928,1.033-4.753,2.44885A1.96027,1.96027,0,0,0,10.81335,2.399,8.58315,8.58315,0,0,0,6,0a1.10823,1.10823,0,0,0-.876.37646c-.48437.563-.33789,1.53663-.20849,2.396A5.59745,5.59745,0,0,1,5,3.5l-.00439.30371c-.00519.25482-.009.54913.00134.8526a3.68555,3.68555,0,0,0-.77527.56537,10.96077,10.96077,0,0,0-3.21173,7.68011C1.00885,12.93518,1,12.96637,1,13s.00885.06482.00995.09821A10.96611,10.96611,0,0,0,11.89954,23.98987C11.93365,23.991,11.96558,24,12,24s.06635-.009.10046-.01013A10.965,10.965,0,0,0,22.98938,13.1051Zm-9.10895,5.57648a2.93478,2.93478,0,0,0-3.76086,0,6.024,6.024,0,0,1-3.80115-3.80115,2.93484,2.93484,0,0,0-.00256-3.764,6.01639,6.01639,0,0,1,1.69934-2.585.485.485,0,0,0,.1225.3133.498.498,0,0,0,.5205.12939l1.02539-.3418.34229,1.02588A.49979.49979,0,0,0,10.49072,10H10.5a.50017.50017,0,0,0,.46826-.32422L12,6.9245l1.03174,2.75128A.50017.50017,0,0,0,13.5,10h.00928a.49979.49979,0,0,0,.46484-.3418l.34229-1.02588,1.02539.3418a.50126.50126,0,0,0,.51758-.12646.48308.48308,0,0,0,.12457-.31861,6.02531,6.02531,0,0,1,1.70025,2.58734,2.93484,2.93484,0,0,0-.00262,3.764A6.024,6.024,0,0,1,13.88043,18.68158Z" fill="url(#a)"/></svg>