<?xml version="1.0" ?><svg viewBox="0 0 24 24" xmlns="http://www.w3.org/2000/svg" xmlns:xlink="http://www.w3.org/1999/xlink"><defs><linearGradient gradientUnits="userSpaceOnUse" id="a" x1="5.1449" x2="19.2955" y1="7.00471" y2="21.15531"><stop offset="0" stop-color="#fff" stop-opacity="0"/><stop offset="1" stop-color="#fff" stop-opacity="0.1"/></linearGradient></defs><title/><path d="M21.14832,7.73035a7.07874,7.07874,0,0,0-3.93738-5.69324l-.55567-.23A7.767,7.767,0,0,0,12.91309,1,4.14143,4.14143,0,0,0,8.88867,4.03809C6.96582,4.41748,4.65234,7.5791,4.65234,10a5.94269,5.94269,0,0,1-1.56506,4.01843A2.088,2.088,0,0,0,1,16a3.53854,3.53854,0,0,0,.291,1.36377A1.77863,1.77863,0,0,1,1.45605,18a.97364.97364,0,0,1-.1289.44922A3.29348,3.29348,0,0,0,1,20c0,1.99756,6.09082,3,9.5,3S20,21.99756,20,20a2.26089,2.26089,0,0,0-.69629-1.68066c-.168-.18409-.2168-.24854-.2168-.31934a1.797,1.797,0,0,1,.165-.63574A3.54156,3.54156,0,0,0,19.544,16a1.81028,1.81028,0,0,0-1.622-1.978,2.29,2.29,0,0,1-.40534-1.70514l.00208-.13385a2.99873,2.99873,0,1,0,3.62964-4.45269Z"/><path d="M5.65234,10c0-2.1582,2.26954-5,3.6084-5A.49975.49975,0,0,0,9.73828,4.648,3.29314,3.29314,0,0,1,12.91309,2a6.83964,6.83964,0,0,1,3.35742.73l.56152.23291a6.21027,6.21027,0,0,1,3.2934,4.54981C20.083,7.51093,20.043,7.5,20,7.5a2.987,2.987,0,0,0-2.093.85712A3.93289,3.93289,0,0,0,15.41211,5.5498a.49968.49968,0,1,0-.43359.9004c2.01171.97021,2.00488,2.10693,2,2.93652V9.5a4.88348,4.88348,0,0,1-.22168,1.19287A5.21668,5.21668,0,0,0,16.52148,12l-.00488.293a3.12147,3.12147,0,0,0,.7229,2.47485.81763.81763,0,0,1-.12329.70093C16.74219,16.04053,15.38672,17,10.5,17s-6.24219-.95947-6.61621-1.53125a.81274.81274,0,0,1-.123-.70386A6.95089,6.95089,0,0,0,5.65234,10Z" fill="#e83628"/><path d="M16.832,2.96289,16.27051,2.73A6.83964,6.83964,0,0,0,12.91309,2a3.018,3.018,0,0,0-2.795,1.7254A3.21847,3.21847,0,0,1,12.24524,3a7.6263,7.6263,0,0,1,3.56219.73l.59577.23291a6.31008,6.31008,0,0,1,3.241,3.57275A2.9251,2.9251,0,0,1,20,7.5c.043,0,.083.01093.12543.0127A6.21027,6.21027,0,0,0,16.832,2.96289Z" fill="#fff" opacity="0.2"/><path d="M16.5166,12.293,16.52148,12a5.21668,5.21668,0,0,1,.23536-1.30713A4.88348,4.88348,0,0,0,16.97852,9.5V9.38672a2.68264,2.68264,0,0,0-1.57795-2.70081A3.38357,3.38357,0,0,1,15.977,8.87915V9a6.77027,6.77027,0,0,1-.17773,1.2724,7.23884,7.23884,0,0,0-.18873,1.39423l-.0039.3125a4.14084,4.14084,0,0,0,.57959,2.63989,1.12127,1.12127,0,0,1-.09882.74762c-.27313.55536-1.20624,1.451-4.32751,1.60724,3.86-.15088,5.017-.98633,5.35632-1.50513a.81763.81763,0,0,0,.12329-.70093A3.12147,3.12147,0,0,1,16.5166,12.293Z" opacity="0.2"/><path d="M5.47833,15.36664a1.11531,1.11531,0,0,1-.09863-.7508A8.78789,8.78789,0,0,0,6.89624,9.53333,7.98938,7.98938,0,0,1,8.38312,5.30847,6.54438,6.54438,0,0,0,5.65234,10,6.95089,6.95089,0,0,1,3.7608,14.76489a.81274.81274,0,0,0,.123.70386C4.25781,16.04053,5.61328,17,10.5,17c.05634,0,.10608-.00177.1615-.002C6.84625,16.97632,5.775,15.97,5.47833,15.36664Z" fill="#fff" opacity="0.2"/><path d="M18.544,16a2.56938,2.56938,0,0,1-.22559,1.00586A2.63247,2.63247,0,0,0,18.08691,18a1.42628,1.42628,0,0,0,.47852.99414A1.28358,1.28358,0,0,1,19,20c-.0332.58008-3.74414,2-8.5,2S2.0332,20.58008,2,20a2.31136,2.31136,0,0,1,.2373-1.13574A1.91736,1.91736,0,0,0,2.45605,18a2.65119,2.65119,0,0,0-.23046-.99414A2.56938,2.56938,0,0,1,2,16a.95615.95615,0,0,1,.73633-.89258,1.88542,1.88542,0,0,0,.28711.87061C3.85938,17.31982,6.375,18,10.5,18s6.64062-.68018,7.47656-2.022a1.8908,1.8908,0,0,0,.28028-.80078A1.02134,1.02134,0,0,1,18.544,16Z" fill="#fff"/><path d="M18.56543,18.99414A1.42628,1.42628,0,0,1,18.08691,18a2.63247,2.63247,0,0,1,.23145-.99414A2.56938,2.56938,0,0,0,18.544,16a1.02134,1.02134,0,0,0-.28711-.82275,1.8908,1.8908,0,0,1-.28028.80078,2.71635,2.71635,0,0,1-.86249.82354A1.67474,1.67474,0,0,0,17.08691,17a1.42628,1.42628,0,0,0,.47852.99414A1.28358,1.28358,0,0,1,18,19c-.0332.58008-3.74414,2-8.5,2a20.57206,20.57206,0,0,1-7.48535-1.2854C2.00775,19.80377,2,19.8905,2,20c.0332.58008,3.74414,2,8.5,2s8.4668-1.41992,8.5-2A1.28358,1.28358,0,0,0,18.56543,18.99414Z" opacity="0.2"/><circle cx="20" cy="10.5" fill="#f2f2f2" r="2"/><circle cx="19.31313" cy="9.75179" fill="#fff" r="0.4799"/><path d="M20,8.5c-.04626,0-.0896.01056-.13507.01367a1.61488,1.61488,0,1,1-1.8092,1.59937c0-.03241.00769-.06275.00958-.09473A1.97934,1.97934,0,0,0,18,10.5a2,2,0,1,0,2-2Z" opacity="0.2"/><path d="M21.14832,7.73035a7.07874,7.07874,0,0,0-3.93738-5.69324l-.55567-.23A7.767,7.767,0,0,0,12.91309,1,4.14143,4.14143,0,0,0,8.88867,4.03809C6.96582,4.41748,4.65234,7.5791,4.65234,10a5.94269,5.94269,0,0,1-1.56506,4.01843A2.088,2.088,0,0,0,1,16a3.53854,3.53854,0,0,0,.291,1.36377A1.77863,1.77863,0,0,1,1.45605,18a.97364.97364,0,0,1-.1289.44922A3.29348,3.29348,0,0,0,1,20c0,1.99756,6.09082,3,9.5,3S20,21.99756,20,20a2.26089,2.26089,0,0,0-.69629-1.68066c-.168-.18409-.2168-.24854-.2168-.31934a1.797,1.797,0,0,1,.165-.63574A3.54156,3.54156,0,0,0,19.544,16a1.81028,1.81028,0,0,0-1.622-1.978,2.29,2.29,0,0,1-.40534-1.70514l.00208-.13385a2.99873,2.99873,0,1,0,3.62964-4.45269Z" fill="url(#a)"/></svg>