<?xml version="1.0" ?><svg viewBox="0 0 24 24" xmlns="http://www.w3.org/2000/svg" xmlns:xlink="http://www.w3.org/1999/xlink"><defs><linearGradient gradientUnits="userSpaceOnUse" id="a" x1="2.82474" x2="21.15964" y1="5.33255" y2="23.66745"><stop offset="0" stop-color="#fff" stop-opacity="0"/><stop offset="1" stop-color="#fff" stop-opacity="0.1"/></linearGradient></defs><title/><path d="M22.80273,9.10205,19.98438,6.955V5a2.0023,2.0023,0,0,0-2-2H14.79382L12.30273,1.10205a.501.501,0,0,0-.60546,0L9.20624,3H5.98438a2.00229,2.00229,0,0,0-2,2V6.97888L1.19727,9.10205A.50093.50093,0,0,0,1,9.5V21a2.00229,2.00229,0,0,0,2,2H21a2.00229,2.00229,0,0,0,2-2V9.5A.50093.50093,0,0,0,22.80273,9.10205Z"/><polygon fill="#e83628" points="21.675 9.5 19.984 10.788 19.984 8.212 21.675 9.5"/><polygon fill="#e83628" points="12 2.128 13.144 3 10.856 3 12 2.128"/><path d="M5.98438,4h12a1.001,1.001,0,0,1,1,1v6.55005L12,16.87158,4.98438,11.52625V5A1.001,1.001,0,0,1,5.98438,4Z" fill="#fff"/><polygon fill="#e83628" points="3.984 10.764 2.325 9.5 3.984 8.236 3.984 10.764"/><polygon opacity="0.2" points="21.675 9.5 19.984 10.788 19.984 8.212 21.675 9.5"/><polygon opacity="0.2" points="12 2.128 13.144 3 10.856 3 12 2.128"/><polygon opacity="0.2" points="3.984 10.764 2.325 9.5 3.984 8.236 3.984 10.764"/><path d="M21,22H3a1.001,1.001,0,0,1-1-1V10.50958L11.69727,17.898a.5.5,0,0,0,.60546,0L22,10.50958V21A1.001,1.001,0,0,1,21,22Z" fill="#e83628"/><path d="M20,12.03339V21a.91787.91787,0,0,1-.8,1H21a1.001,1.001,0,0,0,1-1V10.50958Z" opacity="0.2"/><path d="M4,21V12.03339L2,10.50958V21a1.001,1.001,0,0,0,1,1H4.8A.91787.91787,0,0,1,4,21Z" fill="#fff" opacity="0.2"/><path d="M3,21V11.27148l-1-.7619V21a1.001,1.001,0,0,0,1,1h.9A.95494.95494,0,0,1,3,21Z" fill="#fff" opacity="0.2"/><path d="M21,11.27148V21a.95494.95494,0,0,1-.9,1H21a1.001,1.001,0,0,0,1-1V10.50958Z" opacity="0.2"/><path d="M9.491,10.371l-.8299-.54828a.49972.49972,0,0,0-.55078.834l.87891.58105L9.05273,12.29a.5.5,0,0,0,.499.47021l.03027-.001a.49978.49978,0,0,0,.46875-.52881l-.05963-.99335,1.50885-.871v1.74133l-.89062.44531a.50006.50006,0,1,0,.44726.89454L12,12.97559l.94336.47168a.50006.50006,0,1,0,.44726-.89454L12.5,12.10742V10.36609l1.50885.871-.05963.99335a.49978.49978,0,0,0,.46875.52881l.03027.001a.5.5,0,0,0,.499-.47021l.06347-1.05225.87891-.58105a.49972.49972,0,0,0-.55078-.834l-.8299.54828L13.00018,9.5,14.509,8.629l.8299.54828a.49972.49972,0,0,0,.55078-.834l-.87891-.58105L14.94727,6.71a.48885.48885,0,0,0-.5293-.46924.49978.49978,0,0,0-.46875.52881l.05963.99335L12.5,8.63391V6.89258l.89062-.44531a.50006.50006,0,0,0-.44726-.89454L12,6.02441l-.94336-.47168a.50006.50006,0,0,0-.44726.89454L11.5,6.89258V8.63391l-1.50885-.871.05963-.99335A.49978.49978,0,0,0,9.582,6.24072a.49124.49124,0,0,0-.5293.46924L8.98926,7.76221l-.87891.58105a.49972.49972,0,1,0,.55078.834L9.491,8.629l1.50879.871Z" fill="#e83628"/><path d="M22.80273,9.10205,19.98438,6.955V5a2.0023,2.0023,0,0,0-2-2H14.79382L12.30273,1.10205a.501.501,0,0,0-.60546,0L9.20624,3H5.98438a2.00229,2.00229,0,0,0-2,2V6.97888L1.19727,9.10205A.50093.50093,0,0,0,1,9.5V21a2.00229,2.00229,0,0,0,2,2H21a2.00229,2.00229,0,0,0,2-2V9.5A.50093.50093,0,0,0,22.80273,9.10205Z" fill="url(#a)"/></svg>