<?xml version="1.0" ?><svg viewBox="0 0 24 24" xmlns="http://www.w3.org/2000/svg" xmlns:xlink="http://www.w3.org/1999/xlink"><defs><linearGradient gradientUnits="userSpaceOnUse" id="a" x1="2.37849" x2="20.61922" y1="6.84716" y2="25.0879"><stop offset="0" stop-color="#fff" stop-opacity="0"/><stop offset="1" stop-color="#fff" stop-opacity="0.1"/></linearGradient></defs><title/><path d="M22.39355,20.98193a4.48286,4.48286,0,0,1,.14551-3.853l.4043-.77539a.49887.49887,0,0,0-.12793-.61915l-.124-.10058a3.49308,3.49308,0,0,1-1.22754-3.4043l.02636-.13086a.50024.50024,0,0,0-.71386-.5459l-.58692.29346a.86027.86027,0,0,1-.72949.01453,5.47971,5.47971,0,0,0-4.03442-7.77655A5.48593,5.48593,0,1,0,6.47,10.208,3.59945,3.59945,0,0,1,3.082,11.50684a.5.5,0,0,0-.57226.59179l.02636.13086a3.48791,3.48791,0,0,1-1.22754,3.4043l-.124.10058a.49887.49887,0,0,0-.12793.61915l.4043.77539a4.48286,4.48286,0,0,1,.14551,3.853L1.04,22.30322A.50023.50023,0,0,0,1.5,23a.4925.4925,0,0,0,.1582-.02588l.46973-.15674a7.54981,7.54981,0,0,1,4.74414,0l.46973.15674a.49937.49937,0,0,0,.64843-.376,2.18621,2.18621,0,0,1,2.46289-1.74267l.97657.13965a.50638.50638,0,0,0,.46679-.19092.501.501,0,0,0,.06348-.501l-.79-1.84277a1.66888,1.66888,0,0,1,.60742-2.04443.50076.50076,0,0,0,.13868-.69385l-.21582-.32276a1.22616,1.22616,0,0,1-.07489-1.21954,5.47547,5.47547,0,0,0,.87432.43793l.15857.31677a3.51632,3.51632,0,0,1,0,3.13086l-.60547,1.21094a.50021.50021,0,0,0,.36524.71679l.7793.12989a3.52131,3.52131,0,0,1,2.6748,2.15234l.16406.41016a.49881.49881,0,0,0,.62207.28857l.46973-.15674a7.54981,7.54981,0,0,1,4.74414,0l.46973.15674a.50006.50006,0,0,0,.61816-.6709Z"/><circle cx="14.5" cy="9.5" fill="#e83628" r="4.5"/><circle cx="13" cy="7.5" fill="#fff" opacity="0.2" r="1"/><path d="M15.38556,5.08948a3.78853,3.78853,0,1,1-5.305,3.61371,4.49511,4.49511,0,1,0,5.305-3.61371Z" opacity="0.2"/><path d="M6,6.5a4.49333,4.49333,0,0,1,8.24017-2.48682,5.47264,5.47264,0,0,0-5.08654,6.75544A4.487,4.487,0,0,1,6,6.5Z" fill="#e83628"/><path d="M10.833,15.8999a2.67165,2.67165,0,0,0-.583,2.9541l.43945,1.02491-.0957-.01368A3.20512,3.20512,0,0,0,7.168,21.8623a8.57051,8.57051,0,0,0-4.78125-.16259l.13965-.32422a5.4816,5.4816,0,0,0-.17871-4.7085l-.21875-.41943a4.47742,4.47742,0,0,0,1.46093-3.69238,4.6185,4.6185,0,0,0,3.63025-1.67725,5.47957,5.47957,0,0,0,2.32575.99469,5.52216,5.52216,0,0,0,1.27478,1.70343A2.22759,2.22759,0,0,0,10.833,15.8999Z" fill="#4caf50"/><path d="M2.38672,21.69971a8.5381,8.5381,0,0,1,1.31952-.21912l.03137-.1051a7.694,7.694,0,0,0-.124-4.7085l-.15174-.41943A5.64437,5.64437,0,0,0,4.4754,12.55518a2.63559,2.63559,0,0,0,2.00556-.963,4.61708,4.61708,0,0,1-2.89112.963,4.47742,4.47742,0,0,1-1.46093,3.69238l.21875.41943a5.4816,5.4816,0,0,1,.17871,4.7085Z" fill="#fff" opacity="0.2"/><path d="M10.833,15.8999a2.22759,2.22759,0,0,1-.01239-2.32385,5.52216,5.52216,0,0,1-1.27478-1.70343,5.47957,5.47957,0,0,1-2.32575-.99469c-.03326.04028-.07129.07526-.10577.1142a3.29547,3.29547,0,0,0,1.49274.88049,5.82288,5.82288,0,0,0,.88433,1.70343A3.08882,3.08882,0,0,0,9.5,15.8999a3.57272,3.57272,0,0,0-.40442,2.9541l.30481,1.02491-.06634-.01368c-1.01545-.20587-1.98145.62165-2.35981,1.94825.06385.01941.13031.02789.19373.04882a3.20512,3.20512,0,0,1,3.42578-1.99707l.0957.01368L10.25,18.854A2.67165,2.67165,0,0,1,10.833,15.8999Z" opacity="0.2"/><circle cx="9" cy="4.5" fill="#fff" opacity="0.2" r="1"/><path d="M10.5,2a4.48546,4.48546,0,0,0-1.34637,8.76862A5.47878,5.47878,0,0,1,9,9.5c0-.12012.02686-.23279.03448-.35095a3.48984,3.48984,0,1,1,4.166-4.98468,5.4894,5.4894,0,0,1,1.03973-.15119A4.48339,4.48339,0,0,0,10.5,2Z" opacity="0.2"/><path d="M21.65234,16.667a5.4816,5.4816,0,0,0-.17871,4.7085l.13965.32422a8.567,8.567,0,0,0-4.80176.16943l-.02246.00732a4.52512,4.52512,0,0,0-3.42773-2.73974L13.25,19.11816l.30273-.60546a4.52585,4.52585,0,0,0,.19465-3.57038,5.41065,5.41065,0,0,0,5.2-2.21972,1.84728,1.84728,0,0,0,1.44915.11871,4.48312,4.48312,0,0,0,1.47461,3.40576Z" fill="#4caf50"/><path d="M21.87109,16.24707a4.48312,4.48312,0,0,1-1.47461-3.40576,1.80727,1.80727,0,0,1-.89843.059A5.61562,5.61562,0,0,0,20.5,16.24707l-.14917.41992a7.821,7.821,0,0,0-.12189,4.7085l.0304.10345a8.52564,8.52564,0,0,1,1.35394.22077l-.13965-.32422a5.4816,5.4816,0,0,1,.17871-4.7085Z" opacity="0.2"/><path d="M14.697,19.13672l-.07593-.01856.20642-.60546a6.47507,6.47507,0,0,0,.13782-3.5412c-.15417.01312-.3078.0285-.46533.0285a5.49522,5.49522,0,0,1-.75262-.05768,4.52585,4.52585,0,0,1-.19465,3.57038l-.30273.60546.11133.01856a4.52512,4.52512,0,0,1,3.42773,2.73974l.02246-.00732c.06653-.02216.13636-.03125.20337-.05176A3.61806,3.61806,0,0,0,14.697,19.13672Z" fill="#fff" opacity="0.2"/><path d="M22.39355,20.98193a4.48286,4.48286,0,0,1,.14551-3.853l.4043-.77539a.49887.49887,0,0,0-.12793-.61915l-.124-.10058a3.49308,3.49308,0,0,1-1.22754-3.4043l.02636-.13086a.50024.50024,0,0,0-.71386-.5459l-.58692.29346a.86027.86027,0,0,1-.72949.01453,5.47971,5.47971,0,0,0-4.03442-7.77655A5.48593,5.48593,0,1,0,6.47,10.208,3.59945,3.59945,0,0,1,3.082,11.50684a.5.5,0,0,0-.57226.59179l.02636.13086a3.48791,3.48791,0,0,1-1.22754,3.4043l-.124.10058a.49887.49887,0,0,0-.12793.61915l.4043.77539a4.48286,4.48286,0,0,1,.14551,3.853L1.04,22.30322A.50023.50023,0,0,0,1.5,23a.4925.4925,0,0,0,.1582-.02588l.46973-.15674a7.54981,7.54981,0,0,1,4.74414,0l.46973.15674a.49937.49937,0,0,0,.64843-.376,2.18621,2.18621,0,0,1,2.46289-1.74267l.97657.13965a.50638.50638,0,0,0,.46679-.19092.501.501,0,0,0,.06348-.501l-.79-1.84277a1.66888,1.66888,0,0,1,.60742-2.04443.50076.50076,0,0,0,.13868-.69385l-.21582-.32276a1.22616,1.22616,0,0,1-.07489-1.21954,5.47547,5.47547,0,0,0,.87432.43793l.15857.31677a3.51632,3.51632,0,0,1,0,3.13086l-.60547,1.21094a.50021.50021,0,0,0,.36524.71679l.7793.12989a3.52131,3.52131,0,0,1,2.6748,2.15234l.16406.41016a.49881.49881,0,0,0,.62207.28857l.46973-.15674a7.54981,7.54981,0,0,1,4.74414,0l.46973.15674a.50006.50006,0,0,0,.61816-.6709Z" fill="url(#a)"/></svg>