<?xml version="1.0" ?><svg viewBox="0 0 24 24" xmlns="http://www.w3.org/2000/svg" xmlns:xlink="http://www.w3.org/1999/xlink"><defs><linearGradient gradientUnits="userSpaceOnUse" id="a" x1="5.36636" x2="20.63364" y1="6.92636" y2="22.19363"><stop offset="0" stop-color="#fff" stop-opacity="0"/><stop offset="1" stop-color="#fff" stop-opacity="0.1"/></linearGradient></defs><title/><path d="M22.5,5H19a4,4,0,0,0-8,0H7.5a.49971.49971,0,0,0-.5.5V20.013a.49052.49052,0,0,0,.21423.39941A.47428.47428,0,0,0,7.19659,20.5a.49972.49972,0,0,0,.5.5H21a2.002,2.002,0,0,0,2-2V5.5A.49971.49971,0,0,0,22.5,5ZM12,5a3,3,0,0,1,6,0Z"/><path d="M22,19a1.0013,1.0013,0,0,1-1,1H8V6h3V7.5a.5.5,0,0,0,1,0V6h6V7.5a.5.5,0,0,0,1,0V6h3Z" fill="#e83628"/><path d="M17.14764,11.83731l.67463.44574a.49972.49972,0,1,0,.55078-.834l-.72364-.47852-.05273-.86719a.49354.49354,0,0,0-.5293-.46875.49994.49994,0,0,0-.46875.5293l.04877.80737L15.5,11.6337V10.30893l.72363-.36182a.50006.50006,0,1,0-.44726-.89453L15,9.44077l-.77637-.38819a.50006.50006,0,1,0-.44726.89453l.72363.36182V11.6337l-1.1474-.66242.04877-.80737a.49994.49994,0,0,0-.46875-.5293.48974.48974,0,0,0-.5293.46875l-.05273.86719-.72364.47852a.49972.49972,0,1,0,.55078.834l.67463-.44574,1.14752.66254-1.14752.66253-.67463-.44574a.49972.49972,0,1,0-.55078.834l.72364.47851.05273.86719a.49994.49994,0,0,0,.499.46973l.03028-.001a.49993.49993,0,0,0,.46875-.52929l-.04877-.80738L14.5,13.366v1.32477l-.72363.36181a.50006.50006,0,1,0,.44726.89453L15,15.55893l.77637.38818a.50006.50006,0,1,0,.44726-.89453L15.5,14.69077V13.366l1.1474.66241-.04877.80738a.49993.49993,0,0,0,.46875.52929l.03028.001a.49994.49994,0,0,0,.499-.46973l.05273-.86719.72364-.47851a.49972.49972,0,1,0-.55078-.834l-.67463.44574-1.14752-.66253Z" fill="#fff"/><path d="M20.24255,6V17.78461a1.0013,1.0013,0,0,1-1,1H8V20H21a1.0013,1.0013,0,0,0,1-1V6Z" opacity="0.2"/><path d="M11.5,13H9v-.5a2.5,2.5,0,0,0-5,0V13H1.5a.49971.49971,0,0,0-.5.5V21a2.002,2.002,0,0,0,2,2h7a2.002,2.002,0,0,0,2-2V13.5A.49971.49971,0,0,0,11.5,13ZM5,12.5a1.5,1.5,0,0,1,3,0V13H5Z"/><path d="M11,21a1.0013,1.0013,0,0,1-1,1H3a1.0013,1.0013,0,0,1-1-1V14H4v.5a.5.5,0,0,0,1,0V14H8v.5a.5.5,0,0,0,1,0V14h2Z" fill="#fff"/><path d="M9.5,14v5.819a1.0013,1.0013,0,0,1-1,1H2V21a1.0013,1.0013,0,0,0,1,1h7a1.0013,1.0013,0,0,0,1-1V14Z" opacity="0.2"/><path d="M22.5,5H19a4,4,0,0,0-8,0H7.5a.49971.49971,0,0,0-.5.5v4.5506A2.4996,2.4996,0,0,0,4,12.5V13H1.5a.49971.49971,0,0,0-.5.5V21a2.002,2.002,0,0,0,2,2h7a2.002,2.002,0,0,0,2-2h9a2.002,2.002,0,0,0,2-2V5.5A.49971.49971,0,0,0,22.5,5ZM5,12.5A1.50164,1.50164,0,0,1,6.5,11a1.48254,1.48254,0,0,1,.5.0921V13H5ZM12,5a3,3,0,0,1,6,0Z" fill="url(#a)"/></svg>