<?xml version="1.0" ?><svg viewBox="0 0 24 24" xmlns="http://www.w3.org/2000/svg" xmlns:xlink="http://www.w3.org/1999/xlink"><defs><linearGradient gradientUnits="userSpaceOnUse" id="a" x1="1.71523" x2="21.64525" y1="1.45768" y2="21.38771"><stop offset="0" stop-color="#fff" stop-opacity="0"/><stop offset="1" stop-color="#fff" stop-opacity="0.1"/></linearGradient></defs><title/><path d="M19.74707,14.73047,16.668,12.67773a1.4979,1.4979,0,0,1-.668-1.248v-4.708A1.9934,1.9934,0,0,0,17,5V2a2.00229,2.00229,0,0,0-2-2H4A2.00229,2.00229,0,0,0,2,2V5A1.9934,1.9934,0,0,0,3,6.72174v8.89105a6.4773,6.4773,0,0,0,4.5293,6.19385l4.49414,1.43018A31.0103,31.0103,0,0,0,16.94043,24a5.0597,5.0597,0,0,0,2.80664-9.26953Z"/><rect fill="#fff" height="5" rx="1" width="13" x="3" y="1"/><path d="M15,1H13.58826a1.001,1.001,0,0,1,1,1V5a1.001,1.001,0,0,1-1,1H15a1.001,1.001,0,0,0,1-1V2A1.001,1.001,0,0,0,15,1Z" opacity="0.2"/><path d="M4,15.61279v-.527a7.01516,7.01516,0,0,1,5.969,6.44782l-2.137-.68005A5.48033,5.48033,0,0,1,4,15.61279Z" fill="#fff"/><path d="M16.94043,23a31.65651,31.65651,0,0,1-4.61426-.71631l-1.333-.42419A8.0054,8.0054,0,0,0,4,14.08014V7H15v4.42969a2.49454,2.49454,0,0,0,1.11328,2.08008l3.0791,2.05273A4.05972,4.05972,0,0,1,16.94043,23Z" fill="#e83628"/><path d="M5.57465,7H4v7.08014a7.93033,7.93033,0,0,1,1.57465.3689Z" fill="#fff" opacity="0.2"/><path d="M19.19238,15.5625l-3.0791-2.05273A2.49454,2.49454,0,0,1,15,11.42969V7H13.26245v3.7392a2.4945,2.4945,0,0,0,1.11328,2.08007l3.0791,2.05274a4.05972,4.05972,0,0,1-2.252,7.4375,33.33115,33.33115,0,0,1-4.2204-.617c.00214.056.00971.11072.01068.167l1.333.42419A31.65651,31.65651,0,0,0,16.94043,23a4.05972,4.05972,0,0,0,2.252-7.4375Z" opacity="0.2"/><path d="M19.74707,14.73047,16.668,12.67773a1.4979,1.4979,0,0,1-.668-1.248v-4.708A1.9934,1.9934,0,0,0,17,5V2a2.00229,2.00229,0,0,0-2-2H4A2.00229,2.00229,0,0,0,2,2V5A1.9934,1.9934,0,0,0,3,6.72174v8.89105a6.4773,6.4773,0,0,0,4.5293,6.19385l4.49414,1.43018A31.0103,31.0103,0,0,0,16.94043,24a5.0597,5.0597,0,0,0,2.80664-9.26953Z" fill="url(#a)"/></svg>