<?xml version="1.0" ?><svg viewBox="0 0 24 24" xmlns="http://www.w3.org/2000/svg" xmlns:xlink="http://www.w3.org/1999/xlink"><defs><linearGradient gradientUnits="userSpaceOnUse" id="a" x1="6.33339" x2="14.5259" y1="7.36401" y2="15.55651"><stop offset="0" stop-color="#fff" stop-opacity="0"/><stop offset="1" stop-color="#fff" stop-opacity="0.1"/></linearGradient></defs><title/><path d="M20.2041,1.584a5.82742,5.82742,0,0,0-7.98828,0L10.395,3.30371A2.227,2.227,0,0,0,10.397,6.5498a2.27177,2.27177,0,0,0,3.12012,0L15.33594,4.832a1.27466,1.27466,0,0,1,1.74951.00147,1.22865,1.22865,0,0,1,0,1.7915L2.68311,20.229a2.13488,2.13488,0,0,0-.66651,1.832,2.171,2.171,0,0,0,.66651,1.30566,2.38578,2.38578,0,0,0,3.23828-.00049L20.20947,9.86963A5.68174,5.68174,0,0,0,20.2041,1.584Z"/><path d="M12.83057,5.82324a1.275,1.275,0,0,1-1.749-.00146,1.22866,1.22866,0,0,1,0-1.79151L12.5874,2.608l1.44873,2.0766Z" fill="#fff"/><path d="M14.78058,4.0036,13.35242,1.95654a4.80364,4.80364,0,0,1,2.66711-.95312,4.92442,4.92442,0,0,1,1.39282.17212l-1.30676,2.319A2.25413,2.25413,0,0,0,14.78058,4.0036Z" fill="#e83628"/><path d="M17.14166,3.693l1.21912-2.16351a4.76961,4.76961,0,0,1,1.16217.78693,4.70408,4.70408,0,0,1,.8858,1.1762L18.17706,4.641a2.09931,2.09931,0,0,0-1.0354-.948Z" fill="#fff"/><polygon fill="#e83628" points="7.785 16.785 9.588 15.082 11.767 16.47 9.964 18.173 7.785 16.785"/><polygon fill="#fff" points="9.214 18.881 7.44 20.557 5.261 19.169 7.036 17.493 9.214 18.881"/><polygon fill="#fff" points="10.338 14.374 12.141 12.671 14.319 14.059 12.516 15.762 10.338 14.374"/><polygon fill="#e83628" points="12.89 11.963 14.693 10.26 16.872 11.648 15.069 13.35 12.89 11.963"/><polygon fill="#fff" points="15.443 9.552 17.246 7.849 19.424 9.236 17.621 10.939 15.443 9.552"/><path d="M5.23486,22.63965a1.41947,1.41947,0,0,1-1.86523-.00049,1.14324,1.14324,0,0,1,0-1.68311l1.142-1.07879L6.69019,21.265Z" fill="#e83628"/><path d="M20.09235,8.47607l-2.123-1.35229A2.19944,2.19944,0,0,0,18.47314,5.729c0-.03723-.00927-.07244-.011-.10931L20.797,4.41815A4.66057,4.66057,0,0,1,20.99561,5.522,4.674,4.674,0,0,1,20.09235,8.47607Z" fill="#e83628"/><path d="M11.73364,4.7027,13.129,3.3844,12.5874,2.608,11.08154,4.03027a1.22866,1.22866,0,0,0,0,1.79151,1.257,1.257,0,0,0,.35529.225,1.20148,1.20148,0,0,1,.29681-1.34411Z" fill="#fff" opacity="0.2"/><path d="M16.83325,1.67291c.09729,0,.18854.02045.28436.0257l.29474-.52307a4.92442,4.92442,0,0,0-1.39282-.17212,4.80364,4.80364,0,0,0-2.66711.95312l.53381.76514a4.80206,4.80206,0,0,1,2.78491-1.04633Z" fill="#fff" opacity="0.2"/><path d="M19.523,2.31641a4.76961,4.76961,0,0,0-1.16217-.78693l-.19306.34253a4.68948,4.68948,0,0,1,1.817.96716A4.1799,4.1799,0,0,0,19.523,2.31641Z" fill="#fff" opacity="0.2"/><polygon fill="#fff" opacity="0.2" points="9.588 15.082 7.785 16.785 8.599 17.304 10.402 15.601 9.588 15.082"/><polygon fill="#fff" opacity="0.2" points="7.036 17.493 5.261 19.169 6.076 19.688 7.85 18.012 7.036 17.493"/><polygon fill="#fff" opacity="0.2" points="12.141 12.671 10.338 14.374 11.152 14.893 12.955 13.19 12.141 12.671"/><polygon fill="#fff" opacity="0.2" points="14.693 10.26 12.89 11.963 13.705 12.481 15.507 10.779 14.693 10.26"/><polygon fill="#fff" opacity="0.2" points="17.246 7.849 15.443 9.552 16.257 10.07 18.06 8.367 17.246 7.849"/><path d="M4.02124,21.628l1.3045-1.23218-.81408-.51855-1.142,1.07879a1.14324,1.14324,0,0,0,0,1.68311,1.22285,1.22285,0,0,0,.37024.22583,1.11516,1.11516,0,0,1-.079-.25458A1.13043,1.13043,0,0,1,4.02124,21.628Z" fill="#fff" opacity="0.2"/><path d="M18.88031,5.40448l-.41821.21521c.00177.03687.011.07208.011.10931a2.19944,2.19944,0,0,1-.50384,1.39478l.78455.49969a2.17919,2.17919,0,0,0,.12646-2.219Z" fill="#fff" opacity="0.2"/><path d="M20.2041,1.584a5.82742,5.82742,0,0,0-7.98828,0L10.395,3.30371A2.227,2.227,0,0,0,10.397,6.5498a2.27177,2.27177,0,0,0,3.12012,0L15.33594,4.832a1.27466,1.27466,0,0,1,1.74951.00147,1.22865,1.22865,0,0,1,0,1.7915L2.68311,20.229a2.13488,2.13488,0,0,0-.66651,1.832,2.171,2.171,0,0,0,.66651,1.30566,2.38578,2.38578,0,0,0,3.23828-.00049L20.20947,9.86963A5.68174,5.68174,0,0,0,20.2041,1.584Z" fill="url(#a)"/></svg>